# xmcd
#
# Track frame offsets: 
#        150
#        10829
#        24254
#        35831
#        48409
#        59619
#        70138
#        82630
#        92646
#        106557
#
# Disc length: 1569 seconds
#
# Revision: 3
# Processed by: cddbd v1.5.2PL0 Copyright (c) Steve Scherf et al.
# Submitted via: ExactAudioCopyFreeDBPlugin 1.0
#
DISCID=6e061f0a
DTITLE=Arthur Conley - Sweet Soul Music
DYEAR=1967
DGENRE=Soul
TTITLE0=Sweet Soul Music
TTITLE1=Take Me (Just as I Am)
TTITLE2=Who's Foolin' Who
TTITLE3=There's a Place for Us
TTITLE4=I Can't Stop (No, No, No)
TTITLE5=Wholesale Love
TTITLE6=I'm a Lonely Stranger
TTITLE7=I'm Gonna Forget About You
TTITLE8=Let Nothing Separate Us
TTITLE9=Where You Lead Me
EXTD=
EXTT0=
EXTT1=
EXTT2=
EXTT3=
EXTT4=
EXTT5=
EXTT6=
EXTT7=
EXTT8=
EXTT9=
PLAYORDER=
